# xmcd CD database file generated by OrangeCD 6.4
#
# Track frame offsets:
#	183
#	19760
#	35418
#	50893
#	63050
#	86870
#	105023
#	120095
#	141548
#	165098
#
# Disc length: 2476 seconds
#
# Revision: 5
# Processed by: cddbd v1.5.2PL0 Copyright (c) Steve Scherf et al.
# Submitted via: OrangeCD 6.4
#
DISCID=7409aa0a
DTITLE=Joe Cocker - With A Little Help From My Friends
DYEAR=1989
DGENRE=Blues - Rock
TTITLE0=Feeling Alright
TTITLE1=Bye Bye Blackbird
TTITLE2=Change In Louise
TTITLE3=Marjorine
TTITLE4=Just Like A Woman
TTITLE5=Do I Still Figure In Your Life
TTITLE6=Sandpaper Cadillac
TTITLE7=Don't Let Me Be Misunderstood
TTITLE8=With A Little Help From My Friends
TTITLE9=I Shall Be Released
EXTD=
EXTT0=
EXTT1=
EXTT2=
EXTT3=
EXTT4=
EXTT5=
EXTT6=
EXTT7=
EXTT8=
EXTT9=
PLAYORDER=
